<?xml version="1.0" standalone="no"?><svg xmlns="http://www.w3.org/2000/svg" viewBox="0 0 1440 320"><path fill="#ffb700" fill-opacity="1" d="M0,256L6.2,229.3C12.3,203,25,149,37,112C49.2,75,62,53,74,85.3C86.2,117,98,203,111,250.7C123.1,299,135,309,148,288C160,267,172,213,185,165.3C196.9,117,209,75,222,53.3C233.8,32,246,32,258,53.3C270.8,75,283,117,295,160C307.7,203,320,245,332,256C344.6,267,357,245,369,234.7C381.5,224,394,224,406,224C418.5,224,431,224,443,197.3C455.4,171,468,117,480,96C492.3,75,505,85,517,128C529.2,171,542,245,554,256C566.2,267,578,213,591,165.3C603.1,117,615,75,628,101.3C640,128,652,224,665,229.3C676.9,235,689,149,702,112C713.8,75,726,85,738,80C750.8,75,763,53,775,58.7C787.7,64,800,96,812,101.3C824.6,107,837,85,849,85.3C861.5,85,874,107,886,122.7C898.5,139,911,149,923,181.3C935.4,213,948,267,960,272C972.3,277,985,235,997,186.7C1009.2,139,1022,85,1034,74.7C1046.2,64,1058,96,1071,101.3C1083.1,107,1095,85,1108,117.3C1120,149,1132,235,1145,245.3C1156.9,256,1169,192,1182,154.7C1193.8,117,1206,107,1218,112C1230.8,117,1243,139,1255,154.7C1267.7,171,1280,181,1292,160C1304.6,139,1317,85,1329,85.3C1341.5,85,1354,139,1366,133.3C1378.5,128,1391,64,1403,74.7C1415.4,85,1428,171,1434,213.3L1440,256L1440,0L1433.8,0C1427.7,0,1415,0,1403,0C1390.8,0,1378,0,1366,0C1353.8,0,1342,0,1329,0C1316.9,0,1305,0,1292,0C1280,0,1268,0,1255,0C1243.1,0,1231,0,1218,0C1206.2,0,1194,0,1182,0C1169.2,0,1157,0,1145,0C1132.3,0,1120,0,1108,0C1095.4,0,1083,0,1071,0C1058.5,0,1046,0,1034,0C1021.5,0,1009,0,997,0C984.6,0,972,0,960,0C947.7,0,935,0,923,0C910.8,0,898,0,886,0C873.8,0,862,0,849,0C836.9,0,825,0,812,0C800,0,788,0,775,0C763.1,0,751,0,738,0C726.2,0,714,0,702,0C689.2,0,677,0,665,0C652.3,0,640,0,628,0C615.4,0,603,0,591,0C578.5,0,566,0,554,0C541.5,0,529,0,517,0C504.6,0,492,0,480,0C467.7,0,455,0,443,0C430.8,0,418,0,406,0C393.8,0,382,0,369,0C356.9,0,345,0,332,0C320,0,308,0,295,0C283.1,0,271,0,258,0C246.2,0,234,0,222,0C209.2,0,197,0,185,0C172.3,0,160,0,148,0C135.4,0,123,0,111,0C98.5,0,86,0,74,0C61.5,0,49,0,37,0C24.6,0,12,0,6,0L0,0Z"></path></svg>